<?xml version="1.0" standalone="no"?>
<!DOCTYPE svg PUBLIC "-//W3C//DTD SVG 20010904//EN"
 "http://www.w3.org/TR/2001/REC-SVG-20010904/DTD/svg10.dtd">
<svg version="1.0" xmlns="http://www.w3.org/2000/svg"
 width="134.000000pt" height="140.000000pt" viewBox="0 0 134.000000 140.000000"
 preserveAspectRatio="xMidYMid meet">
<metadata>
Created by potrace 1.10, written by Peter Selinger 2001-2011
</metadata>
<g transform="translate(0.000000,140.000000) scale(0.100000,-0.100000)"
fill="#000000" stroke="none">
<path d="M130 1180 c0 -17 7 -20 44 -20 25 0 48 -6 55 -14 9 -10 11 -88 9
-279 -3 -296 -4 -300 -74 -313 -24 -4 -34 -12 -34 -25 0 -18 9 -19 130 -19
123 0 130 1 130 20 0 13 -7 20 -20 20 -29 0 -76 26 -86 47 -13 28 -18 566 -5
558 6 -3 11 -11 11 -17 0 -6 53 -150 117 -320 85 -223 121 -308 133 -308 11 0
45 85 129 325 63 179 116 325 117 325 2 0 4 -69 4 -154 l0 -154 -25 -6 c-41
-10 -100 -77 -114 -129 -15 -52 -8 -124 14 -153 8 -11 15 -27 15 -36 0 -10 7
-18 16 -18 8 0 43 -9 77 -20 34 -11 100 -30 147 -42 108 -27 140 -55 140 -121
0 -35 -6 -53 -27 -78 -66 -78 -183 -78 -274 0 -40 34 -89 118 -89 154 0 10 -8
17 -20 17 -19 0 -20 -7 -20 -135 0 -128 1 -135 20 -135 10 0 24 8 29 17 32 54
36 56 76 28 115 -77 272 -50 340 59 25 41 30 60 30 110 0 76 -23 117 -85 155
-25 15 -71 33 -102 40 l-58 12 0 124 0 124 32 -11 c47 -16 103 -79 126 -139
11 -30 27 -55 36 -57 14 -3 16 12 16 122 0 119 -1 126 -20 126 -12 0 -26 -12
-36 -32 -9 -18 -18 -35 -20 -37 -1 -1 -18 9 -38 24 -19 14 -47 30 -63 34 l-28
7 -3 132 c-3 162 1 172 68 172 44 0 50 3 50 20 0 20 -5 20 -121 18 l-122 -3
-88 -250 c-49 -137 -89 -255 -89 -262 0 -49 -31 14 -120 247 l-103 270 -113 0
c-107 0 -114 -1 -114 -20z m223 -47 c44 -103 86 -226 80 -236 -3 -5 -2 -7 4
-4 6 4 15 -12 22 -36 7 -23 20 -60 31 -82 10 -22 24 -60 31 -84 8 -26 20 -46
31 -49 21 -5 23 -13 6 -30 -7 -7 -9 -12 -5 -12 4 0 3 -10 -4 -22 -10 -19 -12
-19 -21 -5 -5 10 -6 22 -2 29 4 6 3 8 -3 5 -6 -4 -13 6 -17 23 -3 17 -17 55
-31 85 -14 31 -25 60 -25 65 0 6 -4 18 -9 28 -5 9 -19 44 -31 77 -12 33 -26
69 -30 80 -4 11 -18 47 -30 80 -12 33 -26 68 -31 77 -13 25 -11 48 4 48 8 0
21 -17 30 -37z m513 22 c-3 -9 -6 -82 -6 -163 1 -81 0 -210 0 -288 -1 -163 -2
-162 103 -184 31 -6 57 -15 57 -20 0 -4 9 -10 19 -13 29 -7 51 -49 56 -108 l5
-54 -19 41 c-33 73 -52 83 -261 140 -36 9 -69 21 -75 26 -5 4 -16 8 -26 8 -10
0 -22 16 -33 43 -19 50 -20 67 -5 67 6 0 8 -7 5 -16 -3 -8 -2 -13 3 -10 4 3
17 -4 27 -15 27 -30 52 -41 74 -34 18 6 20 16 20 125 0 73 -4 121 -11 125 -6
5 -4 11 6 19 15 11 16 32 13 169 l-3 157 29 0 c21 0 27 -4 22 -15z m-76 -455
l0 -111 -31 16 c-38 20 -63 75 -53 118 6 30 56 87 75 87 5 0 9 -50 9 -110z
m270 43 c0 -15 -5 -21 -14 -17 -21 8 -28 34 -15 51 15 17 29 1 29 -34z m-782
-178 l22 -25 -44 0 -44 0 21 25 c12 13 22 25 23 25 0 0 10 -11 22 -25z m423
-332 c-9 -7 -22 -17 -28 -23 -10 -8 -13 0 -13 38 0 27 3 51 6 55 4 3 17 -8 29
-26 20 -29 21 -33 6 -44z"/>
</g>
</svg>
